<svg width="21" height="21" viewBox="0 0 21 21" fill="none" xmlns="http://www.w3.org/2000/svg">
<path d="M1.25 1.24988L3.33 1.60988L4.293 13.0829C4.37 14.0199 5.153 14.7389 6.093 14.7359H17.002C17.899 14.7379 18.66 14.0779 18.787 13.1899L19.736 6.63188C19.842 5.89888 19.333 5.21888 18.601 5.11288C18.537 5.10388 3.664 5.09888 3.664 5.09888" stroke="#A5A5AD" stroke-width="2" stroke-linecap="round" stroke-linejoin="round"/>
<path d="M12.625 8.79285H15.398" stroke="#A5A5AD" stroke-width="2" stroke-linecap="round" stroke-linejoin="round"/>
<path fill-rule="evenodd" clip-rule="evenodd" d="M5.65435 18.203C5.95535 18.203 6.19835 18.447 6.19835 18.747C6.19835 19.048 5.95535 19.292 5.65435 19.292C5.35335 19.292 5.11035 19.048 5.11035 18.747C5.11035 18.447 5.35335 18.203 5.65435 18.203Z" fill="#A5A5AD" stroke="#A5A5AD" stroke-width="2" stroke-linecap="round" stroke-linejoin="round"/>
<path fill-rule="evenodd" clip-rule="evenodd" d="M16.9346 18.203C17.2356 18.203 17.4796 18.447 17.4796 18.747C17.4796 19.048 17.2356 19.292 16.9346 19.292C16.6336 19.292 16.3906 19.048 16.3906 18.747C16.3906 18.447 16.6336 18.203 16.9346 18.203Z" fill="#A5A5AD" stroke="#A5A5AD" stroke-width="2" stroke-linecap="round" stroke-linejoin="round"/>
</svg>
