<svg width="12" height="12" viewBox="0 0 12 12" fill="none" xmlns="http://www.w3.org/2000/svg">
<path d="M6.85294 5.96318L11.5258 1.23183C11.5258 1.1579 11.6 1.08397 11.6 0.93612C11.6 0.788265 11.5258 0.714338 11.4516 0.566483C11.1549 0.344701 10.7841 0.344701 10.4874 0.566483L6.03705 5.07605L1.58672 0.492556C1.29003 0.418628 0.844996 0.344701 0.548308 0.566483C0.474136 0.714338 0.399963 0.788265 0.399963 0.93612C0.399963 1.08397 0.474136 1.1579 0.548308 1.23183L5.22116 5.96318L0.474136 10.7685C0.399963 10.8424 0.399963 10.9902 0.399963 11.0642C0.399963 11.212 0.474136 11.286 0.548308 11.4338C0.770824 11.6556 1.21586 11.6556 1.51255 11.4338L5.96288 6.85031L10.4874 11.4338C10.7099 11.6556 11.1549 11.6556 11.4516 11.4338C11.6 11.3599 11.6 11.212 11.6 11.0642C11.6 10.9163 11.6 10.8424 11.4516 10.7685L6.85294 5.96318Z" fill="#8B8B8B"/>
</svg>
