<svg width="16" height="12" viewBox="0 0 16 12" fill="none" xmlns="http://www.w3.org/2000/svg">
<path d="M15.9881 1.44673C15.9881 1.42845 16.0007 1.41065 15.9998 1.39258L11.1172 6.09727L15.994 10.6517C15.9969 10.6191 15.9881 10.5863 15.9881 10.5531V1.44673Z" fill="#2D6846"/>
<path d="M10.3717 6.82129L8.3785 8.73904C8.27764 8.83608 8.14737 8.88474 8.01703 8.88474C7.8894 8.88474 7.76178 8.83816 7.66161 8.74481L5.67379 6.89247L0.765137 11.6239C0.884492 11.6668 1.01261 11.7 1.14677 11.7H14.8874C15.0866 11.7 15.2734 11.6394 15.4359 11.5489L10.3717 6.82129Z" fill="#2D6846"/>
<path d="M8.01169 7.64547L15.4633 0.467402C15.2946 0.367094 15.0982 0.299805 14.8877 0.299805H1.14713C0.873035 0.299805 0.621881 0.40623 0.42627 0.568545L8.01169 7.64547Z" fill="#2D6846"/>
<path d="M0 1.62207V10.5535C0 10.656 0.0235652 10.7549 0.0491463 10.8493L4.8969 6.18107L0 1.62207Z" fill="#2D6846"/>
</svg>
