<svg width="10" height="15" viewBox="0 0 10 15" fill="none" xmlns="http://www.w3.org/2000/svg">
<path d="M2.5 5.49834C2.5 4.7068 1.44722 4.497 1.16791 5.23762C0.492283 7.02914 0 8.63179 0 9.49826C0 12.2597 2.23858 14.4983 5 14.4983C7.76142 14.4983 10 12.2597 10 9.49826C10 8.56735 9.43178 6.78671 8.67844 4.83503C7.70257 2.30684 7.21464 1.04274 6.61233 0.974651C6.4196 0.952864 6.20934 0.992034 6.03739 1.08176C5.5 1.36217 5.5 2.74089 5.5 5.49834C5.5 6.32676 4.82843 6.99834 4 6.99834C3.17157 6.99834 2.5 6.32676 2.5 5.49834Z" fill="#FFCE4C"/>
</svg>
