<svg width="13" height="16" viewBox="0 0 13 16" fill="none" xmlns="http://www.w3.org/2000/svg">
<path d="M6.5 0C2.85088 0 0 3.00752 0 6.85714C0 8.42105 0.570175 9.98496 1.59649 11.188C1.71053 11.3083 4.44737 14.5564 5.35965 15.5188C5.70175 15.8797 6.15789 16 6.5 16C6.95614 16 7.29825 15.8797 7.64035 15.5188C8.66667 14.4361 11.2895 11.4286 11.4035 11.188C12.4298 9.98496 13 8.42105 13 6.73684C12.886 3.00752 10.0351 0 6.5 0ZM6.5 8.78195C5.35965 8.78195 4.5614 7.93985 4.5614 6.85714C4.5614 5.65413 5.35965 4.81203 6.5 4.81203C7.64035 4.81203 8.4386 5.65413 8.4386 6.85714C8.32456 7.93985 7.52632 8.78195 6.5 8.78195Z" fill="#2D6846"/>
</svg>
