<svg width="24" height="24" viewBox="0 0 24 24" fill="none" xmlns="http://www.w3.org/2000/svg">
<path d="M17.1162 6L14 9.11621M14 9.11621H16.4108M14 9.11621L14 6.70541" stroke="white" stroke-width="1.2" stroke-linecap="round" stroke-linejoin="round"/>
<path d="M5.00537 7.20371C5.57011 12.8999 10.1001 17.4299 15.7963 17.9946C16.4588 18.0603 17 17.5143 17 16.8486V14.7039C17 14.185 16.668 13.7244 16.1758 13.5603L14.0906 12.8653C13.6574 12.7209 13.1799 12.8336 12.857 13.1565L12.5233 13.4902C12.3221 13.6913 12.007 13.7256 11.7722 13.565C10.6905 12.8251 10.0838 12.2196 9.42251 11.224C9.26774 10.991 9.30473 10.6818 9.50254 10.484L9.84353 10.143C10.1664 9.82013 10.2791 9.34259 10.1347 8.90945L9.43965 6.82422C9.27558 6.332 8.81495 6 8.29611 6H6.15142C5.48569 6 4.93969 6.54123 5.00537 7.20371Z" fill="white"/>
</svg>
