<svg width="16" height="16" viewBox="0 0 16 16" fill="none" xmlns="http://www.w3.org/2000/svg">
<g clip-path="url(#clip0_6_848)">
<path d="M13.7141 0C13.3985 0 13.1427 0.255837 13.1427 0.571439V2.65885C10.2008 -0.189375 5.50694 -0.113371 2.65871 2.82854C1.31641 4.215 0.567586 6.07021 0.571303 7.99998C0.571303 8.31559 0.82714 8.57142 1.14274 8.57142C1.45834 8.57142 1.71415 8.31559 1.71415 7.99998C1.71485 4.52849 4.52959 1.71482 8.00112 1.71552C9.76419 1.71586 11.446 2.45665 12.6365 3.75713L10.105 4.60111C9.80524 4.70086 9.64302 5.02473 9.74276 5.32453C9.8425 5.62433 10.1664 5.78655 10.4662 5.6868L13.8947 4.54396C14.1288 4.46601 14.2864 4.24664 14.2856 3.99997V0.571406C14.2856 0.255837 14.0297 0 13.7141 0Z" fill="#AFAFAF"/>
<path d="M14.8578 7.42871C14.5421 7.42871 14.2863 7.68455 14.2863 8.00015C14.2856 11.4716 11.4709 14.2853 7.99934 14.2846C6.23627 14.2843 4.55443 13.5435 3.36401 12.243L5.89542 11.399C6.19522 11.2993 6.35744 10.9754 6.2577 10.6756C6.15796 10.3758 5.83408 10.2136 5.53429 10.3133L2.10572 11.4562C1.87168 11.5341 1.71408 11.7535 1.71485 12.0001V15.4287C1.71485 15.7443 1.97068 16.0001 2.28629 16.0001C2.60189 16.0001 2.85773 15.7443 2.85773 15.4287V13.3413C5.79966 16.1895 10.4935 16.1135 13.3417 13.1716C14.684 11.7851 15.4328 9.92992 15.4291 8.00015C15.4292 7.68455 15.1734 7.42871 14.8578 7.42871Z" fill="#AFAFAF"/>
</g>
<defs>
<clipPath id="clip0_6_848">
<rect width="16" height="16" fill="white"/>
</clipPath>
</defs>
</svg>
