<svg width="23" height="23" viewBox="0 0 23 23" fill="none" xmlns="http://www.w3.org/2000/svg">
<path d="M18.5 19.3193C18.5 15.7824 14.4167 15 11.5 15C8.58333 15 4.5 15.7824 4.5 19.3193M22 11.5C22 17.299 17.299 22 11.5 22C5.70101 22 1 17.299 1 11.5C1 5.70101 5.70101 1 11.5 1C17.299 1 22 5.70101 22 11.5ZM15 8C15 9.933 13.433 11.5 11.5 11.5C9.567 11.5 8 9.933 8 8C8 6.067 9.567 4.5 11.5 4.5C13.433 4.5 15 6.067 15 8Z" stroke="#A4A4AD" stroke-width="1.5" stroke-linecap="round" stroke-linejoin="round"/>
</svg>
